<?xml version="1.0" encoding="UTF-8" standalone="no"?>
<!DOCTYPE svg PUBLIC "-//W3C//DTD SVG 1.1//EN"
 "http://www.w3.org/Graphics/SVG/1.1/DTD/svg11.dtd">
<!-- Generated by graphviz version 2.47.0 (20210316.0004)
 -->
<!-- Title: dbml Pages: 1 -->
<svg width="1907pt" height="1215pt"
 viewBox="0.00 0.00 1907.16 1214.77" xmlns="http://www.w3.org/2000/svg" xmlns:xlink="http://www.w3.org/1999/xlink">
<g id="graph0" class="graph" transform="scale(1 1) rotate(0) translate(4 1210.77)">
<title>dbml</title>
<!-- Access -->
<g id="Access" class="node">
<title>Access</title>
<ellipse fill="none" stroke="black" stroke-width="0" cx="342.24" cy="-934.24" rx="289.41" ry="214.92"/>
<polygon fill="#1d71b8" stroke="transparent" points="140.24,-1024.24 140.24,-1084.24 545.24,-1084.24 545.24,-1024.24 140.24,-1024.24"/>
<polygon fill="none" stroke="#29235c" points="140.24,-1024.24 140.24,-1084.24 545.24,-1084.24 545.24,-1024.24 140.24,-1024.24"/>
<text text-anchor="start" x="228.93" y="-1045.44" font-family="Helvetica,sans-Serif" font-weight="bold" font-size="32.00" fill="#ffffff"> &#160;&#160;&#160;&#160;&#160;&#160;Access &#160;&#160;&#160;&#160;&#160;&#160;</text>
<polygon fill="#e7e2dd" stroke="transparent" points="140.24,-964.24 140.24,-1024.24 545.24,-1024.24 545.24,-964.24 140.24,-964.24"/>
<polygon fill="none" stroke="#29235c" points="140.24,-964.24 140.24,-1024.24 545.24,-1024.24 545.24,-964.24 140.24,-964.24"/>
<text text-anchor="start" x="151.24" y="-985.44" font-family="Helvetica,sans-Serif" font-weight="bold" font-size="32.00" fill="#29235c">id</text>
<text text-anchor="start" x="176.13" y="-985.44" font-family="Helvetica,sans-Serif" font-size="32.00" fill="#29235c"> &#160;&#160;&#160;</text>
<text text-anchor="start" x="392.02" y="-985.44" font-family="Helvetica,sans-Serif" font-style="italic" font-size="32.00" fill="#29235c">INTEGER</text>
<polygon fill="#e7e2dd" stroke="transparent" points="140.24,-904.24 140.24,-964.24 545.24,-964.24 545.24,-904.24 140.24,-904.24"/>
<polygon fill="none" stroke="#29235c" points="140.24,-904.24 140.24,-964.24 545.24,-964.24 545.24,-904.24 140.24,-904.24"/>
<text text-anchor="start" x="151.24" y="-924.44" font-family="Helvetica,sans-Serif" font-size="32.00" fill="#29235c">user_id &#160;&#160;&#160;</text>
<text text-anchor="start" x="392.02" y="-925.44" font-family="Helvetica,sans-Serif" font-style="italic" font-size="32.00" fill="#29235c">INTEGER</text>
<polygon fill="#e7e2dd" stroke="transparent" points="140.24,-844.24 140.24,-904.24 545.24,-904.24 545.24,-844.24 140.24,-844.24"/>
<polygon fill="none" stroke="#29235c" points="140.24,-844.24 140.24,-904.24 545.24,-904.24 545.24,-844.24 140.24,-844.24"/>
<text text-anchor="start" x="151.24" y="-864.44" font-family="Helvetica,sans-Serif" font-size="32.00" fill="#29235c">door_id &#160;&#160;&#160;</text>
<text text-anchor="start" x="392.02" y="-865.44" font-family="Helvetica,sans-Serif" font-style="italic" font-size="32.00" fill="#29235c">INTEGER</text>
<polygon fill="#e7e2dd" stroke="transparent" points="140.24,-784.24 140.24,-844.24 545.24,-844.24 545.24,-784.24 140.24,-784.24"/>
<polygon fill="none" stroke="#29235c" points="140.24,-784.24 140.24,-844.24 545.24,-844.24 545.24,-784.24 140.24,-784.24"/>
<text text-anchor="start" x="151.04" y="-804.44" font-family="Helvetica,sans-Serif" font-size="32.00" fill="#29235c">is_permanent &#160;&#160;&#160;</text>
<text text-anchor="start" x="379.89" y="-805.44" font-family="Helvetica,sans-Serif" font-style="italic" font-size="32.00" fill="#29235c">BOOLEAN</text>
<polygon fill="none" stroke="#29235c" stroke-width="2" points="138.74,-783.24 138.74,-1085.24 545.74,-1085.24 545.74,-783.24 138.74,-783.24"/>
</g>
<!-- Door -->
<g id="Door" class="node">
<title>Door</title>
<ellipse fill="none" stroke="black" stroke-width="0" cx="1036.56" cy="-363.24" rx="316.15" ry="130.22"/>
<polygon fill="#1d71b8" stroke="transparent" points="815.56,-393.24 815.56,-453.24 1258.56,-453.24 1258.56,-393.24 815.56,-393.24"/>
<polygon fill="none" stroke="#29235c" points="815.56,-393.24 815.56,-453.24 1258.56,-453.24 1258.56,-393.24 815.56,-393.24"/>
<text text-anchor="start" x="940.14" y="-414.44" font-family="Helvetica,sans-Serif" font-weight="bold" font-size="32.00" fill="#ffffff"> &#160;&#160;&#160;&#160;&#160;&#160;Door &#160;&#160;&#160;&#160;&#160;&#160;</text>
<polygon fill="#e7e2dd" stroke="transparent" points="815.56,-333.24 815.56,-393.24 1258.56,-393.24 1258.56,-333.24 815.56,-333.24"/>
<polygon fill="none" stroke="#29235c" points="815.56,-333.24 815.56,-393.24 1258.56,-393.24 1258.56,-333.24 815.56,-333.24"/>
<text text-anchor="start" x="826.56" y="-354.44" font-family="Helvetica,sans-Serif" font-weight="bold" font-size="32.00" fill="#29235c">id</text>
<text text-anchor="start" x="851.45" y="-354.44" font-family="Helvetica,sans-Serif" font-size="32.00" fill="#29235c"> &#160;&#160;&#160;</text>
<text text-anchor="start" x="1105.34" y="-354.44" font-family="Helvetica,sans-Serif" font-style="italic" font-size="32.00" fill="#29235c">INTEGER</text>
<polygon fill="#e7e2dd" stroke="transparent" points="815.56,-273.24 815.56,-333.24 1258.56,-333.24 1258.56,-273.24 815.56,-273.24"/>
<polygon fill="none" stroke="#29235c" points="815.56,-273.24 815.56,-333.24 1258.56,-333.24 1258.56,-273.24 815.56,-273.24"/>
<text text-anchor="start" x="826.42" y="-293.44" font-family="Helvetica,sans-Serif" font-size="32.00" fill="#29235c">description &#160;&#160;&#160;</text>
<text text-anchor="start" x="1016.51" y="-294.44" font-family="Helvetica,sans-Serif" font-style="italic" font-size="32.00" fill="#29235c">VARCHAR(100)</text>
<polygon fill="none" stroke="#29235c" stroke-width="2" points="814.06,-272.24 814.06,-454.24 1259.06,-454.24 1259.06,-272.24 814.06,-272.24"/>
</g>
<!-- Access&#45;&gt;Door -->
<!-- Access&#45;&gt;Door -->
<g id="edge2" class="edge">
<title>Access:e&#45;&gt;Door:w</title>
<path fill="none" stroke="#29235c" stroke-width="3" d="M546.24,-874.24C647.46,-874.24 643.27,-785.7 684.48,-693.24 719.65,-614.34 687.59,-582.12 720.48,-502.24 747.5,-436.63 740.74,-370.08 804.21,-363.73"/>
<polygon fill="#29235c" stroke="#29235c" stroke-width="3" points="804.73,-367.21 814.56,-363.24 804.4,-360.22 804.73,-367.21"/>
<text text-anchor="middle" x="820.78" y="-363.24" font-family="Helvetica,sans-Serif" font-size="32.00" fill="#29235c">*</text>
<text text-anchor="middle" x="555.13" y="-883.84" font-family="Helvetica,sans-Serif" font-size="32.00" fill="#29235c">1</text>
</g>
<!-- User -->
<g id="User" class="node">
<title>User</title>
<ellipse fill="none" stroke="black" stroke-width="0" cx="1036.56" cy="-853.24" rx="308.1" ry="342.48"/>
<polygon fill="#1d71b8" stroke="transparent" points="820.56,-1033.24 820.56,-1093.24 1252.56,-1093.24 1252.56,-1033.24 820.56,-1033.24"/>
<polygon fill="none" stroke="#29235c" points="820.56,-1033.24 820.56,-1093.24 1252.56,-1093.24 1252.56,-1033.24 820.56,-1033.24"/>
<text text-anchor="start" x="940.54" y="-1054.44" font-family="Helvetica,sans-Serif" font-weight="bold" font-size="32.00" fill="#ffffff"> &#160;&#160;&#160;&#160;&#160;&#160;User &#160;&#160;&#160;&#160;&#160;&#160;</text>
<polygon fill="#e7e2dd" stroke="transparent" points="820.56,-973.24 820.56,-1033.24 1252.56,-1033.24 1252.56,-973.24 820.56,-973.24"/>
<polygon fill="none" stroke="#29235c" points="820.56,-973.24 820.56,-1033.24 1252.56,-1033.24 1252.56,-973.24 820.56,-973.24"/>
<text text-anchor="start" x="831.56" y="-994.44" font-family="Helvetica,sans-Serif" font-weight="bold" font-size="32.00" fill="#29235c">id</text>
<text text-anchor="start" x="856.45" y="-994.44" font-family="Helvetica,sans-Serif" font-size="32.00" fill="#29235c"> &#160;&#160;&#160;</text>
<text text-anchor="start" x="1099.34" y="-994.44" font-family="Helvetica,sans-Serif" font-style="italic" font-size="32.00" fill="#29235c">INTEGER</text>
<polygon fill="#e7e2dd" stroke="transparent" points="820.56,-913.24 820.56,-973.24 1252.56,-973.24 1252.56,-913.24 820.56,-913.24"/>
<polygon fill="none" stroke="#29235c" points="820.56,-913.24 820.56,-973.24 1252.56,-973.24 1252.56,-913.24 820.56,-913.24"/>
<text text-anchor="start" x="831.56" y="-933.44" font-family="Helvetica,sans-Serif" font-size="32.00" fill="#29235c">name &#160;&#160;&#160;</text>
<text text-anchor="start" x="1028.25" y="-934.44" font-family="Helvetica,sans-Serif" font-style="italic" font-size="32.00" fill="#29235c">VARCHAR(50)</text>
<polygon fill="#e7e2dd" stroke="transparent" points="820.56,-853.24 820.56,-913.24 1252.56,-913.24 1252.56,-853.24 820.56,-853.24"/>
<polygon fill="none" stroke="#29235c" points="820.56,-853.24 820.56,-913.24 1252.56,-913.24 1252.56,-853.24 820.56,-853.24"/>
<text text-anchor="start" x="831.53" y="-873.44" font-family="Helvetica,sans-Serif" font-size="32.00" fill="#29235c">is_special_user &#160;&#160;&#160;</text>
<text text-anchor="start" x="1087.21" y="-874.44" font-family="Helvetica,sans-Serif" font-style="italic" font-size="32.00" fill="#29235c">BOOLEAN</text>
<polygon fill="#e7e2dd" stroke="transparent" points="820.56,-793.24 820.56,-853.24 1252.56,-853.24 1252.56,-793.24 820.56,-793.24"/>
<polygon fill="none" stroke="#29235c" points="820.56,-793.24 820.56,-853.24 1252.56,-853.24 1252.56,-793.24 820.56,-793.24"/>
<text text-anchor="start" x="831.56" y="-813.44" font-family="Helvetica,sans-Serif" font-size="32.00" fill="#29235c">group_id &#160;&#160;&#160;</text>
<text text-anchor="start" x="1099.34" y="-814.44" font-family="Helvetica,sans-Serif" font-style="italic" font-size="32.00" fill="#29235c">INTEGER</text>
<polygon fill="#e7e2dd" stroke="transparent" points="820.56,-733.24 820.56,-793.24 1252.56,-793.24 1252.56,-733.24 820.56,-733.24"/>
<polygon fill="none" stroke="#29235c" points="820.56,-733.24 820.56,-793.24 1252.56,-793.24 1252.56,-733.24 820.56,-733.24"/>
<text text-anchor="start" x="831.56" y="-753.44" font-family="Helvetica,sans-Serif" font-size="32.00" fill="#29235c">profile_id &#160;&#160;&#160;</text>
<text text-anchor="start" x="1099.34" y="-754.44" font-family="Helvetica,sans-Serif" font-style="italic" font-size="32.00" fill="#29235c">INTEGER</text>
<polygon fill="#e7e2dd" stroke="transparent" points="820.56,-673.24 820.56,-733.24 1252.56,-733.24 1252.56,-673.24 820.56,-673.24"/>
<polygon fill="none" stroke="#29235c" points="820.56,-673.24 820.56,-733.24 1252.56,-733.24 1252.56,-673.24 820.56,-673.24"/>
<text text-anchor="start" x="831.56" y="-693.44" font-family="Helvetica,sans-Serif" font-size="32.00" fill="#29235c">access_count &#160;&#160;&#160;</text>
<text text-anchor="start" x="1099.34" y="-694.44" font-family="Helvetica,sans-Serif" font-style="italic" font-size="32.00" fill="#29235c">INTEGER</text>
<polygon fill="#e7e2dd" stroke="transparent" points="820.56,-613.24 820.56,-673.24 1252.56,-673.24 1252.56,-613.24 820.56,-613.24"/>
<polygon fill="none" stroke="#29235c" points="820.56,-613.24 820.56,-673.24 1252.56,-673.24 1252.56,-613.24 820.56,-613.24"/>
<text text-anchor="start" x="831.56" y="-633.44" font-family="Helvetica,sans-Serif" font-size="32.00" fill="#29235c">invitation_count &#160;&#160;&#160;</text>
<text text-anchor="start" x="1099.34" y="-634.44" font-family="Helvetica,sans-Serif" font-style="italic" font-size="32.00" fill="#29235c">INTEGER</text>
<polygon fill="none" stroke="#29235c" stroke-width="2" points="819.56,-612.24 819.56,-1094.24 1253.56,-1094.24 1253.56,-612.24 819.56,-612.24"/>
</g>
<!-- Access&#45;&gt;User -->
<!-- Access&#45;&gt;User -->
<g id="edge4" class="edge">
<title>Access:e&#45;&gt;User:w</title>
<path fill="none" stroke="#29235c" stroke-width="3" d="M546.24,-934.24C668.1,-934.24 692.95,-999.52 809.5,-1003.09"/>
<polygon fill="#29235c" stroke="#29235c" stroke-width="3" points="809.5,-1006.59 819.56,-1003.24 809.61,-999.59 809.5,-1006.59"/>
<text text-anchor="middle" x="825.78" y="-1012.84" font-family="Helvetica,sans-Serif" font-size="32.00" fill="#29235c">*</text>
<text text-anchor="middle" x="555.13" y="-943.84" font-family="Helvetica,sans-Serif" font-size="32.00" fill="#29235c">1</text>
</g>
<!-- Group -->
<g id="Group" class="node">
<title>Group</title>
<ellipse fill="none" stroke="black" stroke-width="0" cx="1643.9" cy="-1034.24" rx="255.03" ry="172.57"/>
<polygon fill="#1d71b8" stroke="transparent" points="1465.9,-1094.24 1465.9,-1154.24 1822.9,-1154.24 1822.9,-1094.24 1465.9,-1094.24"/>
<polygon fill="none" stroke="#29235c" points="1465.9,-1094.24 1465.9,-1154.24 1822.9,-1154.24 1822.9,-1094.24 1465.9,-1094.24"/>
<text text-anchor="start" x="1537.69" y="-1115.44" font-family="Helvetica,sans-Serif" font-weight="bold" font-size="32.00" fill="#ffffff"> &#160;&#160;&#160;&#160;&#160;&#160;Group &#160;&#160;&#160;&#160;&#160;&#160;</text>
<polygon fill="#e7e2dd" stroke="transparent" points="1465.9,-1034.24 1465.9,-1094.24 1822.9,-1094.24 1822.9,-1034.24 1465.9,-1034.24"/>
<polygon fill="none" stroke="#29235c" points="1465.9,-1034.24 1465.9,-1094.24 1822.9,-1094.24 1822.9,-1034.24 1465.9,-1034.24"/>
<text text-anchor="start" x="1476.9" y="-1055.44" font-family="Helvetica,sans-Serif" font-weight="bold" font-size="32.00" fill="#29235c">id</text>
<text text-anchor="start" x="1501.79" y="-1055.44" font-family="Helvetica,sans-Serif" font-size="32.00" fill="#29235c"> &#160;&#160;&#160;</text>
<text text-anchor="start" x="1669.68" y="-1055.44" font-family="Helvetica,sans-Serif" font-style="italic" font-size="32.00" fill="#29235c">INTEGER</text>
<polygon fill="#e7e2dd" stroke="transparent" points="1465.9,-974.24 1465.9,-1034.24 1822.9,-1034.24 1822.9,-974.24 1465.9,-974.24"/>
<polygon fill="none" stroke="#29235c" points="1465.9,-974.24 1465.9,-1034.24 1822.9,-1034.24 1822.9,-974.24 1465.9,-974.24"/>
<text text-anchor="start" x="1476.9" y="-994.44" font-family="Helvetica,sans-Serif" font-size="32.00" fill="#29235c">name &#160;&#160;&#160;</text>
<text text-anchor="start" x="1598.59" y="-995.44" font-family="Helvetica,sans-Serif" font-style="italic" font-size="32.00" fill="#29235c">VARCHAR(50)</text>
<polygon fill="#e7e2dd" stroke="transparent" points="1465.9,-914.24 1465.9,-974.24 1822.9,-974.24 1822.9,-914.24 1465.9,-914.24"/>
<polygon fill="none" stroke="#29235c" points="1465.9,-914.24 1465.9,-974.24 1822.9,-974.24 1822.9,-914.24 1465.9,-914.24"/>
<text text-anchor="start" x="1476.47" y="-934.44" font-family="Helvetica,sans-Serif" font-size="32.00" fill="#29235c">user_count &#160;&#160;&#160;</text>
<text text-anchor="start" x="1669.79" y="-935.44" font-family="Helvetica,sans-Serif" font-style="italic" font-size="32.00" fill="#29235c">INTEGER</text>
<polygon fill="none" stroke="#29235c" stroke-width="2" points="1464.4,-913.24 1464.4,-1155.24 1823.4,-1155.24 1823.4,-913.24 1464.4,-913.24"/>
</g>
<!-- User&#45;&gt;Group -->
<!-- User&#45;&gt;Group -->
<g id="edge6" class="edge">
<title>User:e&#45;&gt;Group:w</title>
<path fill="none" stroke="#29235c" stroke-width="3" d="M1253.56,-823.24C1392.54,-823.24 1325.9,-1052.62 1454.84,-1063.82"/>
<polygon fill="#29235c" stroke="#29235c" stroke-width="3" points="1454.76,-1067.32 1464.9,-1064.24 1455.05,-1060.32 1454.76,-1067.32"/>
<text text-anchor="middle" x="1458.68" y="-1073.84" font-family="Helvetica,sans-Serif" font-size="32.00" fill="#29235c">*</text>
<text text-anchor="middle" x="1244.66" y="-832.84" font-family="Helvetica,sans-Serif" font-size="32.00" fill="#29235c">1</text>
</g>
<!-- Profile -->
<g id="Profile" class="node">
<title>Profile</title>
<ellipse fill="none" stroke="black" stroke-width="0" cx="1643.9" cy="-671.24" rx="255.03" ry="172.57"/>
<polygon fill="#1d71b8" stroke="transparent" points="1465.9,-731.24 1465.9,-791.24 1822.9,-791.24 1822.9,-731.24 1465.9,-731.24"/>
<polygon fill="none" stroke="#29235c" points="1465.9,-731.24 1465.9,-791.24 1822.9,-791.24 1822.9,-731.24 1465.9,-731.24"/>
<text text-anchor="start" x="1536.82" y="-752.44" font-family="Helvetica,sans-Serif" font-weight="bold" font-size="32.00" fill="#ffffff"> &#160;&#160;&#160;&#160;&#160;&#160;Profile &#160;&#160;&#160;&#160;&#160;&#160;</text>
<polygon fill="#e7e2dd" stroke="transparent" points="1465.9,-671.24 1465.9,-731.24 1822.9,-731.24 1822.9,-671.24 1465.9,-671.24"/>
<polygon fill="none" stroke="#29235c" points="1465.9,-671.24 1465.9,-731.24 1822.9,-731.24 1822.9,-671.24 1465.9,-671.24"/>
<text text-anchor="start" x="1476.9" y="-692.44" font-family="Helvetica,sans-Serif" font-weight="bold" font-size="32.00" fill="#29235c">id</text>
<text text-anchor="start" x="1501.79" y="-692.44" font-family="Helvetica,sans-Serif" font-size="32.00" fill="#29235c"> &#160;&#160;&#160;</text>
<text text-anchor="start" x="1669.68" y="-692.44" font-family="Helvetica,sans-Serif" font-style="italic" font-size="32.00" fill="#29235c">INTEGER</text>
<polygon fill="#e7e2dd" stroke="transparent" points="1465.9,-611.24 1465.9,-671.24 1822.9,-671.24 1822.9,-611.24 1465.9,-611.24"/>
<polygon fill="none" stroke="#29235c" points="1465.9,-611.24 1465.9,-671.24 1822.9,-671.24 1822.9,-611.24 1465.9,-611.24"/>
<text text-anchor="start" x="1476.9" y="-631.44" font-family="Helvetica,sans-Serif" font-size="32.00" fill="#29235c">name &#160;&#160;&#160;</text>
<text text-anchor="start" x="1598.59" y="-632.44" font-family="Helvetica,sans-Serif" font-style="italic" font-size="32.00" fill="#29235c">VARCHAR(50)</text>
<polygon fill="#e7e2dd" stroke="transparent" points="1465.9,-551.24 1465.9,-611.24 1822.9,-611.24 1822.9,-551.24 1465.9,-551.24"/>
<polygon fill="none" stroke="#29235c" points="1465.9,-551.24 1465.9,-611.24 1822.9,-611.24 1822.9,-551.24 1465.9,-551.24"/>
<text text-anchor="start" x="1476.47" y="-571.44" font-family="Helvetica,sans-Serif" font-size="32.00" fill="#29235c">user_count &#160;&#160;&#160;</text>
<text text-anchor="start" x="1669.79" y="-572.44" font-family="Helvetica,sans-Serif" font-style="italic" font-size="32.00" fill="#29235c">INTEGER</text>
<polygon fill="none" stroke="#29235c" stroke-width="2" points="1464.4,-550.24 1464.4,-792.24 1823.4,-792.24 1823.4,-550.24 1464.4,-550.24"/>
</g>
<!-- User&#45;&gt;Profile -->
<!-- User&#45;&gt;Profile -->
<g id="edge8" class="edge">
<title>User:e&#45;&gt;Profile:w</title>
<path fill="none" stroke="#29235c" stroke-width="3" d="M1253.56,-763.24C1348,-763.24 1365.81,-705.52 1454.87,-701.46"/>
<polygon fill="#29235c" stroke="#29235c" stroke-width="3" points="1454.98,-704.96 1464.9,-701.24 1454.82,-697.96 1454.98,-704.96"/>
<text text-anchor="middle" x="1458.68" y="-710.84" font-family="Helvetica,sans-Serif" font-size="32.00" fill="#29235c">*</text>
<text text-anchor="middle" x="1244.66" y="-772.84" font-family="Helvetica,sans-Serif" font-size="32.00" fill="#29235c">1</text>
</g>
<!-- Invitation -->
<g id="Invitation" class="node">
<title>Invitation</title>
<ellipse fill="none" stroke="black" stroke-width="0" cx="342.24" cy="-342.24" rx="342.48" ry="342.48"/>
<polygon fill="#1d71b8" stroke="transparent" points="102.24,-522.24 102.24,-582.24 582.24,-582.24 582.24,-522.24 102.24,-522.24"/>
<polygon fill="none" stroke="#29235c" points="102.24,-522.24 102.24,-582.24 582.24,-582.24 582.24,-522.24 102.24,-522.24"/>
<text text-anchor="start" x="215.97" y="-543.44" font-family="Helvetica,sans-Serif" font-weight="bold" font-size="32.00" fill="#ffffff"> &#160;&#160;&#160;&#160;&#160;&#160;Invitation &#160;&#160;&#160;&#160;&#160;&#160;</text>
<polygon fill="#e7e2dd" stroke="transparent" points="102.24,-462.24 102.24,-522.24 582.24,-522.24 582.24,-462.24 102.24,-462.24"/>
<polygon fill="none" stroke="#29235c" points="102.24,-462.24 102.24,-522.24 582.24,-522.24 582.24,-462.24 102.24,-462.24"/>
<text text-anchor="start" x="113.24" y="-483.44" font-family="Helvetica,sans-Serif" font-weight="bold" font-size="32.00" fill="#29235c">id</text>
<text text-anchor="start" x="138.13" y="-483.44" font-family="Helvetica,sans-Serif" font-size="32.00" fill="#29235c"> &#160;&#160;&#160;</text>
<text text-anchor="start" x="429.02" y="-483.44" font-family="Helvetica,sans-Serif" font-style="italic" font-size="32.00" fill="#29235c">INTEGER</text>
<polygon fill="#e7e2dd" stroke="transparent" points="102.24,-402.24 102.24,-462.24 582.24,-462.24 582.24,-402.24 102.24,-402.24"/>
<polygon fill="none" stroke="#29235c" points="102.24,-402.24 102.24,-462.24 582.24,-462.24 582.24,-402.24 102.24,-402.24"/>
<text text-anchor="start" x="113.24" y="-422.44" font-family="Helvetica,sans-Serif" font-size="32.00" fill="#29235c">user_id &#160;&#160;&#160;</text>
<text text-anchor="start" x="429.02" y="-423.44" font-family="Helvetica,sans-Serif" font-style="italic" font-size="32.00" fill="#29235c">INTEGER</text>
<polygon fill="#e7e2dd" stroke="transparent" points="102.24,-342.24 102.24,-402.24 582.24,-402.24 582.24,-342.24 102.24,-342.24"/>
<polygon fill="none" stroke="#29235c" points="102.24,-342.24 102.24,-402.24 582.24,-402.24 582.24,-342.24 102.24,-342.24"/>
<text text-anchor="start" x="113.24" y="-362.44" font-family="Helvetica,sans-Serif" font-size="32.00" fill="#29235c">door_id &#160;&#160;&#160;</text>
<text text-anchor="start" x="429.02" y="-363.44" font-family="Helvetica,sans-Serif" font-style="italic" font-size="32.00" fill="#29235c">INTEGER</text>
<polygon fill="#e7e2dd" stroke="transparent" points="102.24,-282.24 102.24,-342.24 582.24,-342.24 582.24,-282.24 102.24,-282.24"/>
<polygon fill="none" stroke="#29235c" points="102.24,-282.24 102.24,-342.24 582.24,-342.24 582.24,-282.24 102.24,-282.24"/>
<text text-anchor="start" x="113.24" y="-302.44" font-family="Helvetica,sans-Serif" font-size="32.00" fill="#29235c">start_date &#160;&#160;&#160;</text>
<text text-anchor="start" x="485.91" y="-303.44" font-family="Helvetica,sans-Serif" font-style="italic" font-size="32.00" fill="#29235c">DATE</text>
<polygon fill="#e7e2dd" stroke="transparent" points="102.24,-222.24 102.24,-282.24 582.24,-282.24 582.24,-222.24 102.24,-222.24"/>
<polygon fill="none" stroke="#29235c" points="102.24,-222.24 102.24,-282.24 582.24,-282.24 582.24,-222.24 102.24,-222.24"/>
<text text-anchor="start" x="113.24" y="-242.44" font-family="Helvetica,sans-Serif" font-size="32.00" fill="#29235c">end_date &#160;&#160;&#160;</text>
<text text-anchor="start" x="485.91" y="-243.44" font-family="Helvetica,sans-Serif" font-style="italic" font-size="32.00" fill="#29235c">DATE</text>
<polygon fill="#e7e2dd" stroke="transparent" points="102.24,-162.24 102.24,-222.24 582.24,-222.24 582.24,-162.24 102.24,-162.24"/>
<polygon fill="none" stroke="#29235c" points="102.24,-162.24 102.24,-222.24 582.24,-222.24 582.24,-162.24 102.24,-162.24"/>
<text text-anchor="start" x="113.24" y="-182.44" font-family="Helvetica,sans-Serif" font-size="32.00" fill="#29235c">is_recurring &#160;&#160;&#160;</text>
<text text-anchor="start" x="416.54" y="-183.44" font-family="Helvetica,sans-Serif" font-style="italic" font-size="32.00" fill="#29235c">BOOLEAN</text>
<polygon fill="#e7e2dd" stroke="transparent" points="102.24,-102.24 102.24,-162.24 582.24,-162.24 582.24,-102.24 102.24,-102.24"/>
<polygon fill="none" stroke="#29235c" points="102.24,-102.24 102.24,-162.24 582.24,-162.24 582.24,-102.24 102.24,-102.24"/>
<text text-anchor="start" x="113.21" y="-122.44" font-family="Helvetica,sans-Serif" font-size="32.00" fill="#29235c">is_within_schedule &#160;&#160;&#160;</text>
<text text-anchor="start" x="416.89" y="-123.44" font-family="Helvetica,sans-Serif" font-style="italic" font-size="32.00" fill="#29235c">BOOLEAN</text>
<polygon fill="none" stroke="#29235c" stroke-width="2" points="101.24,-101.24 101.24,-583.24 583.24,-583.24 583.24,-101.24 101.24,-101.24"/>
</g>
<!-- Invitation&#45;&gt;Door -->
<!-- Invitation&#45;&gt;Door -->
<g id="edge10" class="edge">
<title>Invitation:e&#45;&gt;Door:w</title>
<path fill="none" stroke="#29235c" stroke-width="3" d="M583.24,-372.24C682.61,-372.24 709.83,-363.84 804.27,-363.27"/>
<polygon fill="#29235c" stroke="#29235c" stroke-width="3" points="804.57,-366.77 814.56,-363.24 804.55,-359.77 804.57,-366.77"/>
<text text-anchor="middle" x="808.33" y="-334.44" font-family="Helvetica,sans-Serif" font-size="32.00" fill="#29235c">*</text>
<text text-anchor="middle" x="592.13" y="-372.24" font-family="Helvetica,sans-Serif" font-size="32.00" fill="#29235c">1</text>
</g>
<!-- Invitation&#45;&gt;User -->
<!-- Invitation&#45;&gt;User -->
<g id="edge12" class="edge">
<title>Invitation:e&#45;&gt;User:w</title>
<path fill="none" stroke="#29235c" stroke-width="3" d="M583.24,-432.24C854.41,-432.24 552.76,-988.83 809.38,-1002.97"/>
<polygon fill="#29235c" stroke="#29235c" stroke-width="3" points="809.47,-1006.47 819.56,-1003.24 809.65,-999.47 809.47,-1006.47"/>
<text text-anchor="middle" x="825.78" y="-974.44" font-family="Helvetica,sans-Serif" font-size="32.00" fill="#29235c">*</text>
<text text-anchor="middle" x="592.13" y="-432.24" font-family="Helvetica,sans-Serif" font-size="32.00" fill="#29235c">1</text>
</g>
</g>
</svg>
